{"title":"Wiz Khalifa - Mezmorized [KingPinVideos]","uid":5732862,"size":84614402,"categoryP":"other","categoryS":"other","magnet":"?xt=urn:btih:084d3ee0eba33f299f6b0662b4dfd9342075f713&amp;dn=Wiz+Khalifa+-+Mezmorized+%5BKingPinVideos%5D&amp;tr=udp%3A%2F%2Ftracker.openbittorrent.com%3A80&amp;tr=udp%3A%2F%2Fopen.demonii.com%3A1337&amp;tr=udp%3A%2F%2Ftracker.coppersurfer.tk%3A6969&amp;tr=udp%3A%2F%2Fexodus.desync.com%3A6969","seeders":0,"leechers":1,"uploader":null,"files":4,"time":1280717762,"description":"[img]http://a.imageshack.us/img514/517/wizmem.png[/img]\n\n[img]http://a.imageshack.us/img405/1863/wizmem3.png[/img]\n\n[code]General\nComplete name                    : Wiz Khalifa - Mezmorized [KingPinVideos].mpg\nFormat                           : MPEG-PS\nFile size                        : 80.5 MiB\nDuration                         : 3mn 51s\nOverall bit rate                 : 2 920 Kbps\nWriting library                  : encoded by TMPGEnc 4.0 XPress Version. 4.7.4.299\n\nVideo\nID                               : 224 (0xE0)\nFormat                           : MPEG Video\nFormat version                   : Version 1\nFormat settings, BVOP            : Yes\nFormat settings, Matrix          : Default\nDuration                         : 3mn 51s\nBit rate mode                    : Constant\nBit rate                         : 2 613 Kbps\nNominal bit rate                 : 2 700 Kbps\nWidth                            : 384 pixels\nHeight                           : 208 pixels\nDisplay aspect ratio             : 16:9\nFrame rate                       : 29.970 fps\nResolution                       : 8 bits\nScan type                        : Progressive\nBits/(Pixel*Frame)               : 1.091\nStream size                      : 72.0 MiB (89%)\nWriting library                  : TMPGEnc XPress 4.7.4.299\n\nAudio\nID                               : 192 (0xC0)\nFormat                           : MPEG Audio\nFormat version                   : Version 1\nFormat profile                   : Layer 2\nDuration                         : 3mn 51s\nBit rate mode                    : Constant\nBit rate                         : 192 Kbps\nChannel(s)                       : 2 channels\nSampling rate                    : 48.0 KHz\nStream size                      : 5.29 MiB (7%)\n\n[/code]","torrent":{"xt":"urn:btih:084d3ee0eba33f299f6b0662b4dfd9342075f713","amp;dn":"Wiz+Khalifa+-+Mezmorized+%5BKingPinVideos%5D","amp;tr":["udp%3A%2F%2Ftracker.openbittorrent.com%3A80","udp%3A%2F%2Fopen.demonii.com%3A1337","udp%3A%2F%2Ftracker.coppersurfer.tk%3A6969","udp%3A%2F%2Fexodus.desync.com%3A6969"],"infoHash":"084d3ee0eba33f299f6b0662b4dfd9342075f713","infoHashBuffer":{"type":"Buffer","data":[8,77,62,224,235,163,63,41,159,107,6,98,180,223,217,52,32,117,247,19]},"announce":[],"urlList":[]}}